<svg width="1920" height="280" viewBox="0 0 1920 280" fill="none" xmlns="http://www.w3.org/2000/svg">
<path opacity="0.95" d="M2163.5 250.5C2163.5 233.102 2155.09 216.167 2139.18 199.868C2123.28 183.57 2099.84 167.873 2069.71 152.935C2009.43 123.058 1922.25 96.1664 1814.56 73.5875C1599.17 28.4279 1301.63 0.499999 973 0.499999C644.367 0.499999 346.831 28.4279 131.44 73.5875C23.7492 96.1664 -63.4337 123.058 -123.706 152.935C-153.841 167.873 -177.275 183.57 -193.181 199.868C-209.089 216.167 -217.5 233.102 -217.5 250.5C-217.5 267.898 -209.089 284.833 -193.181 301.132C-177.275 317.43 -153.841 333.127 -123.706 348.065C-63.4337 377.942 23.7492 404.834 131.44 427.413C346.831 472.572 644.367 500.5 973 500.5C1301.63 500.5 1599.17 472.572 1814.56 427.413C1922.25 404.834 2009.43 377.942 2069.71 348.065C2099.84 333.127 2123.28 317.43 2139.18 301.132C2155.09 284.833 2163.5 267.898 2163.5 250.5Z" fill="url(#paint0_radial)" stroke="url(#paint1_diamond)"/>
<defs>
<radialGradient id="paint0_radial" cx="0" cy="0" r="1" gradientUnits="userSpaceOnUse" gradientTransform="translate(973 250.5) scale(1190 249.5)">
<stop stop-color="#044676"/>
<stop offset="1" stop-color="#004E86" stop-opacity="0.9"/>
</radialGradient>
<radialGradient id="paint1_diamond" cx="0" cy="0" r="1" gradientUnits="userSpaceOnUse" gradientTransform="translate(968.697 251.368) rotate(90.0406) scale(12867.6 3.2184e+07)">
<stop stop-color="white"/>
<stop offset="1" stop-color="white" stop-opacity="0"/>
</radialGradient>
</defs>
</svg>
