<svg width="27" height="15" viewBox="0 0 27 15" fill="none" xmlns="http://www.w3.org/2000/svg">
<path d="M25.4071 12.1502C24.6179 11.2037 23.6892 10.3958 22.8105 9.538C22.0178 8.76477 21.9678 8.31622 22.6051 7.42378C23.3005 6.44977 24.0485 5.51311 24.7503 4.54349C25.4054 3.63732 26.0751 2.73362 26.4198 1.64863C26.6385 0.958359 26.4451 0.653464 25.7372 0.532605C25.6153 0.511454 25.4892 0.510356 25.365 0.510356L21.1655 0.505412C20.6482 0.497721 20.3623 0.723233 20.1794 1.18167C19.9324 1.80135 19.6778 2.42048 19.3836 3.01846C18.7161 4.37428 17.9706 5.68478 16.9255 6.79449C16.695 7.03923 16.4401 7.34852 16.055 7.22107C15.5732 7.04527 15.4312 6.25145 15.4392 5.98308L15.4351 1.1358C15.3417 0.443334 15.1881 0.134593 14.5006 0L10.1381 0.000824112C9.55582 0.000824112 9.26384 0.225787 8.9529 0.590013C8.77353 0.800418 8.71942 0.936934 9.08804 1.0067C9.8121 1.14404 10.22 1.61265 10.3282 2.33863C10.5018 3.4986 10.4897 4.66325 10.3898 5.82789C10.3604 6.16794 10.3019 6.50717 10.167 6.8247C9.95603 7.3238 9.61543 7.42543 9.16797 7.11834C8.76282 6.84036 8.47825 6.44812 8.19973 6.05423C7.15347 4.5759 6.31872 2.98165 5.63806 1.30638C5.44139 0.822393 5.10216 0.529034 4.58933 0.521068C3.32937 0.501016 2.06914 0.49772 0.809181 0.522167C0.051064 0.53645 -0.174998 0.904522 0.133743 1.59177C1.50604 4.64429 3.03354 7.61194 5.02745 10.3153C6.05118 11.7028 7.22654 12.9275 8.74497 13.7955C10.4658 14.7794 12.3183 15.0755 14.2693 14.9844C15.1829 14.9415 15.4573 14.7039 15.4996 13.7933C15.5282 13.1704 15.5988 12.551 15.9062 11.9912C16.2078 11.4418 16.6645 11.3372 17.1911 11.6789C17.4545 11.85 17.6765 12.0678 17.886 12.2974C18.4002 12.86 18.896 13.4396 19.4298 13.9831C20.0991 14.6644 20.8921 15.0668 21.8892 14.9846L25.749 14.9855C26.3709 14.9448 26.6934 14.1823 26.3363 13.4882C26.0855 13.002 25.7565 12.5691 25.4071 12.1502Z" fill="white"/>
</svg>
