<?xml version="1.0" encoding="UTF-8"?>
<!DOCTYPE svg PUBLIC "-//W3C//DTD SVG 1.1//EN" "http://www.w3.org/Graphics/SVG/1.1/DTD/svg11.dtd">
<!-- Creator: CorelDRAW X7 -->
<svg xmlns="http://www.w3.org/2000/svg" xml:space="preserve" width="26mm" height="26mm" version="1.1" style="shape-rendering:geometricPrecision; text-rendering:geometricPrecision; image-rendering:optimizeQuality; fill-rule:evenodd; clip-rule:evenodd"
viewBox="0 0 2600 2600"
 xmlns:xlink="http://www.w3.org/1999/xlink">
 <defs>
  <style type="text/css">
   <![CDATA[
    .fil0 {fill:#003399}
    .fil2 {fill:#FF6600}
    .fil1 {fill:white}
   ]]>
  </style>
 </defs>
 <g id="Слой_x0020_1">
  <metadata id="CorelCorpID_0Corel-Layer"/>
  <g id="_2131787563968">
   <path class="fil0" d="M1369 483c3,-6 -2,-2 4,-4l190 0c7,20 0,71 2,95l62 2 0 -160 -321 1c-1,21 0,133 -4,142 -5,8 -21,10 -38,15 -15,5 -27,9 -41,14 -13,5 -25,10 -39,16 -52,25 -26,32 -97,-25 -11,-9 -52,-46 -62,-49 -19,16 -226,229 -226,230 14,21 88,96 99,114l-66 149 -171 0 0 351 167 1 33 96c16,41 29,61 41,89 -16,25 -94,114 -99,127 7,9 19,21 28,29 10,10 18,19 28,29 20,20 37,38 57,57 20,21 36,38 57,58 21,20 36,39 57,56 8,-3 48,-43 59,-54l60 -53 74 35c38,16 52,17 81,28 6,22 -3,140 2,173l320 1 1 -224 -64 0 0 159 -193 1 0 -159c-36,-15 -86,-13 -178,-65 -8,-4 -45,-28 -52,-29 -20,15 -96,93 -108,97 -4,-2 -139,-133 -142,-145 12,-23 81,-98 89,-116 -4,-12 -24,-41 -31,-56 -19,-36 -38,-87 -50,-127l-19 -70c-19,-7 -122,3 -153,-2l0 -223c30,-1 138,4 157,-2 7,-20 10,-41 17,-60 7,-22 14,-37 23,-57l53 -103c-19,-24 -79,-88 -89,-103 4,-8 127,-131 143,-145 15,6 92,78 110,87 17,-9 29,-20 48,-30 69,-37 103,-39 177,-60l4 -131z"/>
   <path class="fil0" d="M1692 1597c-61,0 -158,1 -186,1 -389,-1 -546,-386 -327,-649 52,-63 128,-114 217,-137 55,-14 67,-7 102,-14l0 -62c-61,-9 -168,30 -211,52 -325,172 -381,611 -39,808 162,92 288,59 444,65l0 -64z"/>
   <path class="fil0" d="M1941 837c-5,12 -87,134 -103,154 -108,3 -221,-1 -330,0 -55,0 -90,9 -131,35 -116,74 -147,219 -57,328 21,25 55,54 95,69 42,15 106,21 148,15l-1 -63c-67,-6 -144,16 -204,-70 -44,-64 -32,-152 17,-202 59,-58 122,-50 225,-48l272 -1c5,-1 71,-104 80,-117 6,-7 22,-33 29,-38 1,-9 42,-67 45,-68l84 0c11,24 9,51 48,87 98,91 225,14 241,-83 17,-104 -108,-211 -218,-141 -15,10 -25,19 -35,31 -17,19 -22,36 -27,41l-128 1c-12,12 -41,66 -50,70zm292 -99c-24,8 -34,12 -47,33 -34,57 8,143 93,121 41,-10 67,-49 54,-101 -10,-41 -55,-66 -100,-53z"/>
   <path class="fil0" d="M2210 1172l-2 10c-21,4 -65,1 -88,1 -30,0 -60,-1 -90,0 -31,0 -157,-4 -177,1l0 61c15,4 242,1 278,1 15,0 31,0 46,0 22,0 39,-4 41,7 22,34 30,48 62,68 28,18 66,28 107,16 58,-16 120,-79 109,-155 -9,-66 -70,-124 -138,-127 -55,-3 -103,31 -129,71 -16,25 -13,34 -19,46zm124 -52c-25,7 -37,12 -49,31 -36,54 -2,141 83,126 105,-17 74,-183 -34,-157z"/>
   <path class="fil0" d="M1787 713c-15,33 -28,18 -63,23l0 62c14,2 71,4 80,-3 13,-12 27,-36 42,-46 1,-4 116,-138 125,-144 37,21 68,48 132,28 42,-14 74,-45 91,-81 45,-93 -35,-190 -113,-200 -93,-12 -182,79 -160,174 10,41 18,17 -53,98 -11,12 -73,85 -81,89zm256 -295c-25,6 -37,12 -49,31 -35,55 3,144 87,125 103,-23 70,-183 -38,-156z"/>
   <path class="fil0" d="M1627 1438l95 0c4,-9 3,-53 1,-63l-95 0 -1 63z"/>
   <polygon class="fil0" points="1563,799 1627,799 1627,736 1564,735 "/>
   <polygon class="fil0" points="1563,1246 1627,1246 1627,1183 1563,1183 "/>
   <polygon class="fil0" points="1724,1246 1788,1247 1788,1183 1724,1183 "/>
   <path class="fil1" d="M1369 483c18,-7 161,-2 193,-3l0 94c10,5 53,3 66,2 3,-13 3,-149 -1,-161 -23,-2 -198,0 -240,0 -10,-1 -72,-3 -81,2l321 -1 0 160 -62 -2c-2,-24 5,-75 -2,-95l-190 0c-6,2 -1,-2 -4,4z"/>
   <path class="fil2" d="M712 808c-13,56 17,49 57,88l-62 79c-20,-11 -93,-63 -97,-80 -5,-28 1,-71 -7,-98 2,-6 -10,-284 -15,-298 -68,-10 -133,-4 -194,-91 -39,-57 -48,-126 -34,-188 35,-159 233,-205 341,-144 129,73 151,270 29,369 -53,43 -40,6 -31,174 2,25 7,177 13,189zm-29 -614c25,31 35,51 31,86 -10,102 -147,178 -234,75 -106,-126 95,-296 203,-161z"/>
   <path class="fil0" d="M719 1595l-39 49 -120 1c-9,65 -70,126 -141,127 -75,2 -134,-59 -146,-123 -19,-101 106,-213 218,-141 20,12 38,32 50,50 4,8 7,17 11,22l96 1c5,-6 32,-40 32,-45 11,-7 22,-25 31,-37l86 -110 86 1 -1 63c-62,0 -50,-5 -67,17 -22,27 -85,108 -96,125zm-280 -43c25,7 37,15 47,33 9,17 15,44 8,67 -11,39 -50,67 -101,54 -96,-24 -67,-185 46,-154z"/>
   <path class="fil0" d="M664 1896l-54 68 -164 0c-13,89 -95,173 -193,175 -102,2 -184,-81 -200,-169 -27,-138 146,-292 298,-194 27,17 53,44 69,70 5,10 10,22 15,30l131 0c7,-8 44,-54 44,-60 15,-10 31,-36 43,-51l117 -151 118 1 -1 86c-85,0 -68,-7 -92,24 -29,37 -117,148 -131,171zm-384 -59c34,9 50,21 64,46 13,23 21,59 12,91 -15,53 -69,92 -139,74 -132,-33 -91,-253 63,-211z"/>
   <path class="fil2" d="M2104 1532l-32 0c0,0 -42,5 -73,15 -22,8 -41,17 -60,28 -10,6 -17,12 -26,18 -4,3 -8,6 -13,10 -18,16 -38,37 -51,58 -55,84 -61,172 -27,279 28,87 81,159 125,225 31,47 77,111 103,159 4,9 11,22 17,27 6,6 21,11 33,6 16,-7 30,-38 38,-50 11,-18 23,-37 34,-53l55 -77c18,-25 47,-65 63,-90 35,-56 57,-89 80,-159 34,-101 16,-202 -37,-274 -24,-33 -55,-62 -93,-83 -76,-43 -124,-35 -136,-39zm-15 735c4,-3 23,-34 28,-41l57 -84c10,-14 20,-27 29,-41 42,-64 75,-106 101,-180 13,-36 22,-79 17,-121 -4,-46 -17,-73 -36,-104 -11,-17 -21,-26 -33,-39 -12,-12 -26,-21 -41,-30 -63,-41 -161,-41 -226,-5 -106,59 -142,170 -104,289 31,98 98,184 153,270 9,15 18,29 27,43 9,14 18,29 28,43z"/>
   <path class="fil2" d="M1638 2300l0 19c1,3 2,20 7,35 3,10 7,18 12,28 18,34 50,62 82,82 54,36 115,55 179,69 23,6 47,9 71,11 11,2 75,5 78,6l63 0c7,-3 28,-2 38,-3 12,-1 24,-2 37,-3 117,-14 267,-59 326,-161 17,-30 17,-56 19,-62l0 -16c-3,-7 0,-29 -18,-63 -27,-48 -81,-87 -135,-110 -19,-8 -44,-22 -60,-3 -6,7 -10,21 -6,33 9,26 59,22 122,83 6,6 14,14 19,22 4,7 11,19 12,28 5,27 -2,48 -15,65 -22,30 -54,51 -93,70 -158,75 -391,74 -552,5 -41,-18 -74,-39 -98,-67 -19,-21 -23,-34 -23,-59 1,-41 39,-73 69,-94 26,-17 68,-32 78,-46 12,-19 -2,-45 -24,-48 -10,-1 -24,6 -31,9 -41,19 -74,39 -100,64 -20,18 -40,46 -49,73 -2,5 -4,10 -5,16 -1,5 -1,13 -3,17z"/>
   <path class="fil2" d="M2081 1724c-14,2 -26,6 -35,12 -58,34 -68,111 -14,155 17,14 44,26 74,22 68,-10 107,-81 72,-142 -11,-19 -32,-36 -53,-43 -13,-4 -29,-7 -44,-4zm4 64c-38,9 -28,71 19,60 14,-3 27,-23 21,-38 -7,-17 -20,-27 -40,-22z"/>
  </g>
 </g>
</svg>
