<?xml version="1.0" encoding="UTF-8"?>
<!DOCTYPE svg PUBLIC "-//W3C//DTD SVG 1.1//EN" "http://www.w3.org/Graphics/SVG/1.1/DTD/svg11.dtd">
<!-- Creator: CorelDRAW X7 -->
<svg xmlns="http://www.w3.org/2000/svg" xml:space="preserve" width="26mm" height="26mm" version="1.1" style="shape-rendering:geometricPrecision; text-rendering:geometricPrecision; image-rendering:optimizeQuality; fill-rule:evenodd; clip-rule:evenodd"
viewBox="0 0 2600 2600"
 xmlns:xlink="http://www.w3.org/1999/xlink">
 <defs>
  <style type="text/css">
   <![CDATA[
    .fil0 {fill:#003399}
    .fil1 {fill:#FF6600}
   ]]>
  </style>
 </defs>
 <g id="Слой_x0020_1">
  <metadata id="CorelCorpID_0Corel-Layer"/>
  <g id="_2132425222976">
   <path class="fil0" d="M1466 2112c2,-6 2,-9 4,-15 26,-95 144,-134 237,-134 25,0 53,2 77,-1 9,-2 42,-2 87,-2 -3,-20 -5,-42 -5,-63 0,-5 0,-10 0,-15l-42 0c-69,0 -146,1 -209,14 -40,7 -87,24 -120,44 -6,4 -10,7 -16,11 -5,5 -11,10 -18,12 0,-308 0,-617 0,-925 0,-67 -4,-171 2,-226 5,-44 -5,-207 2,-228 3,-7 15,-30 20,-37 22,-33 62,-68 105,-72l117 -2 117 -2 0 2 76 0 0 -2 165 0 0 2 78 0 0 -2 159 0 0 1044c28,3 56,9 82,18 1,-21 1,-42 1,-63l0 -614c0,-53 2,-101 2,-152 0,-96 -19,-75 78,-79l0 944c30,18 57,40 80,64l0 -1053c0,-10 -11,-21 -18,-24 -14,-7 -118,-7 -140,-7l-3 -92c0,-4 -2,-41 -3,-44 -2,-4 -22,-21 -26,-21l-751 2c-9,0 -19,0 -28,0 -23,1 -79,32 -97,44 -14,10 -49,44 -57,55 -12,-8 -15,-12 -26,-22 -48,-47 -97,-77 -171,-77 -35,0 -63,-2 -99,-2l-630 0 0 573 -43 0c0,86 0,171 0,256 0,25 2,45 2,72l0 484c0,16 3,23 3,36 0,22 -2,91 1,108 3,19 -3,19 9,29 13,11 44,9 68,9 28,0 47,2 76,2 53,0 420,-3 455,2 14,1 76,0 110,4 60,8 118,27 157,68l18 22c18,29 15,37 22,55 0,10 1,4 -4,6 -5,-6 -30,-23 -39,-28 -41,-22 -116,-45 -161,-46 -265,-7 -531,-5 -795,-5l0 -1074 -80 0 0 1007c0,52 0,85 1,90 3,19 -3,26 6,40 9,13 13,10 33,13 28,4 544,5 587,5 45,0 260,1 305,11 15,4 21,7 34,12 66,26 113,80 118,152 3,51 13,56 48,56 60,0 3,-104 94,-175 40,-31 79,-45 132,-51 27,-3 61,0 88,-4 11,-1 97,-2 197,-2 -17,-23 -31,-48 -42,-75 -72,1 -155,2 -253,3 -35,4 -68,14 -97,26 -18,8 -65,30 -76,45 -6,0 -4,1 -4,-6zm-864 -230c-2,-1 0,-1 -5,-2l-59 0 0 -1410c210,6 450,3 664,3 53,0 44,-5 80,11l34 21c24,19 58,62 60,87 4,41 -3,158 0,217 6,95 3,192 3,287l0 867c-9,-2 -23,-15 -32,-21 -51,-31 -121,-55 -184,-55 -115,-1 -229,-4 -345,-5 -72,0 -144,0 -216,0z"/>
   <polygon class="fil0" points="629,1755 1267,1755 1267,1669 629,1669 "/>
   <polygon class="fil0" points="629,1580 1267,1580 1267,1495 629,1495 "/>
   <polygon class="fil0" points="629,1400 1267,1400 1267,1314 629,1314 "/>
   <polygon class="fil0" points="629,1048 1267,1048 1267,962 629,962 "/>
   <polygon class="fil0" points="629,699 1267,699 1267,613 629,613 "/>
   <path class="fil0" d="M1582 1755l312 0c12,-31 29,-60 49,-86l-361 0 0 86z"/>
   <polygon class="fil0" points="1582,1400 2221,1400 2221,1314 1582,1314 "/>
   <polygon class="fil0" points="1582,1226 2221,1226 2221,1140 1582,1140 "/>
   <path class="fil0" d="M2192 963l-507 0c7,-14 18,-23 28,-35 13,-15 14,-24 37,-25 39,0 80,0 119,1 8,-18 26,-42 37,-60 12,-17 30,-42 38,-59 29,0 57,0 86,0 46,0 35,4 65,-21 34,-29 64,-56 98,-83 7,-9 3,-2 9,-12 -7,-6 -26,-36 -29,-44 -13,7 -81,68 -98,82 -29,25 -23,18 -68,18 -30,0 -59,0 -89,0 -19,39 -56,81 -75,119 -161,-2 -126,15 -185,77l0 -313 -63 -1 0 415 623 0 0 -59 -26 0z"/>
   <path class="fil1" d="M2376 1630c149,72 215,247 147,392 -29,65 -81,112 -141,139l135 361 -82 28 -137 -366c-55,7 -112,-1 -167,-27 -149,-72 -215,-247 -147,-392 68,-146 243,-206 392,-135zm-39 85c101,48 145,167 99,266 -45,98 -164,139 -265,91 -101,-48 -146,-167 -100,-266 46,-98 165,-139 266,-91z"/>
   <path class="fil1" d="M122 50l344 0c40,0 72,31 72,70l0 842c0,39 -32,70 -72,70l-344 0c-40,0 -72,-31 -72,-70l0 -842c0,-39 32,-70 72,-70zm82 843l181 0 0 -85 -181 0 0 85zm-22 -760l224 0c26,0 46,20 46,45l0 726c0,25 -20,45 -46,45l-224 0c-25,0 -46,-20 -46,-45l0 -726c0,-25 20,-45 46,-45z"/>
   <polygon class="fil1" points="204,893 385,893 385,808 204,808 "/>
   <polygon class="fil1" points="204,755 385,755 385,669 204,669 "/>
   <polygon class="fil1" points="204,271 385,271 385,185 204,185 "/>
  </g>
 </g>
</svg>
