<?xml version="1.0" encoding="UTF-8"?>
<!DOCTYPE svg PUBLIC "-//W3C//DTD SVG 1.1//EN" "http://www.w3.org/Graphics/SVG/1.1/DTD/svg11.dtd">
<!-- Creator: CorelDRAW X7 -->
<svg xmlns="http://www.w3.org/2000/svg" xml:space="preserve" width="26mm" height="26mm" version="1.1" style="shape-rendering:geometricPrecision; text-rendering:geometricPrecision; image-rendering:optimizeQuality; fill-rule:evenodd; clip-rule:evenodd"
viewBox="0 0 2600 2600"
 xmlns:xlink="http://www.w3.org/1999/xlink">
 <defs>
  <style type="text/css">
   <![CDATA[
    .fil0 {fill:#003399}
    .fil1 {fill:#FF6600}
   ]]>
  </style>
 </defs>
 <g id="Слой_x0020_1">
  <metadata id="CorelCorpID_0Corel-Layer"/>
  <g id="_2132427985344">
   <path class="fil0" d="M2246 991c-17,34 -41,38 -51,119 -6,50 -2,876 -2,1016 0,60 -9,113 57,116 24,-14 37,-9 43,-45 5,-25 2,-949 2,-1032 0,-41 -5,-111 68,-120 30,-3 53,10 68,27 19,22 18,43 18,75 0,17 5,1086 -3,1121 -22,84 -135,188 -198,176 -9,5 -35,2 -45,1 -12,-2 -30,-6 -41,-10 -78,-30 -117,-105 -122,-190 -7,-132 0,-282 0,-417 0,-139 0,-277 0,-416 0,-46 -1,-93 -1,-139l-100 0 0 726c0,122 -14,255 26,364 18,49 41,69 43,85 -514,5 -1040,0 -1556,0 -97,0 -157,11 -218,-44 -39,-35 -80,-95 -81,-177 -3,-345 0,-691 0,-1036l0 -779c0,-95 -6,-154 50,-209 60,-60 114,-50 212,-50 86,0 172,0 258,0 340,0 699,-4 1037,0 82,0 148,31 188,74 38,40 43,84 42,137l71 -154c-11,-21 -27,-41 -49,-61 -64,-60 -116,-83 -215,-95 -48,-6 -1187,-2 -1234,-2 -92,0 -211,-11 -291,18 -63,23 -129,89 -152,156 -28,83 -18,194 -18,291l0 1543c0,179 -20,341 163,454 74,47 179,34 277,34l1544 0c90,0 218,11 293,-17 63,-24 137,-87 169,-140 58,-97 51,-125 51,-255l0 -927c0,-86 12,-173 -74,-233 -32,-21 -73,-36 -123,-31 -65,6 -90,43 -106,46z"/>
   <path class="fil0" d="M430 1325l471 0c92,0 90,-102 -3,-102 -80,-1 -160,0 -240,0 -76,0 -160,-4 -235,0 -86,3 -92,102 7,102z"/>
   <path class="fil0" d="M426 1936l479 0c86,0 88,-102 -11,-102 -78,0 -157,0 -236,0 -76,0 -161,-4 -236,0 -84,4 -90,102 4,102z"/>
   <path class="fil0" d="M434 2242l373 0c47,0 130,12 152,-22 12,-18 13,-43 -4,-61 -16,-19 -44,-19 -72,-19 -117,0 -234,0 -352,0 -45,0 -131,-10 -157,16 -14,13 -44,86 60,86z"/>
   <path class="fil0" d="M1188 2089l21 0 461 0c85,0 86,-102 -7,-102l-472 0c-88,0 -92,102 -3,102z"/>
   <path class="fil0" d="M1612 2140l-421 0c-91,0 -86,99 -11,102 73,3 152,0 225,0 71,0 152,4 222,0 73,-4 80,-102 -15,-102z"/>
   <path class="fil0" d="M434 1478l422 0c86,0 79,-102 -2,-102l-420 0c-42,0 -74,11 -75,51 -2,43 37,51 75,51z"/>
   <path class="fil0" d="M426 2089l435 0c72,0 81,-102 -10,-102l-421 0c-35,0 -68,11 -71,49 -3,40 31,53 67,53z"/>
   <path class="fil0" d="M405 1683c-22,8 -31,9 -41,28 -10,18 -4,40 5,52 22,29 74,20 119,20l281 0c41,-7 60,-50 34,-82 -22,-27 -80,-19 -119,-19 -37,0 -263,-4 -279,1z"/>
   <path class="fil0" d="M1460 1834l-269 0c-81,0 -80,72 -45,94 25,15 141,8 180,8 39,0 150,7 177,-7 45,-23 33,-95 -43,-95z"/>
   <path class="fil0" d="M426 1172l272 0c79,0 80,-74 40,-94 -31,-15 -135,-8 -178,-8 -42,0 -148,-8 -177,9 -30,17 -47,93 43,93z"/>
   <path class="fil0" d="M359 787l0 -341 89 0 130 175c2,4 6,11 12,22 5,10 12,23 18,38 -1,-14 -3,-27 -4,-38 0,-11 -1,-20 -1,-29l0 -168 89 0 0 341 -89 0 -129 -176c-3,-4 -7,-11 -12,-22 -6,-11 -12,-24 -19,-38 2,14 3,27 4,38 1,11 1,21 1,29l0 169 -89 0zm407 0l0 -341 209 0 0 74 -119 0 0 60 112 0 0 73 -112 0 0 57 119 0 0 77 -209 0zm503 -341l43 162c2,7 3,15 5,23 2,8 4,17 6,27 2,-12 4,-22 5,-30 2,-8 4,-15 5,-20l40 -162 94 0 -96 341 -86 0 -43 -146c-1,-5 -4,-15 -7,-30 -2,-7 -3,-12 -4,-16 -1,4 -2,8 -3,14 -4,15 -7,26 -9,32l-41 146 -87 0 -96 -341 94 0 39 163c2,8 4,16 6,25 2,8 3,17 5,26 1,-7 3,-14 4,-21 2,-7 4,-17 8,-30l43 -163 75 0zm246 231c13,15 27,27 40,35 14,7 27,11 41,11 12,0 22,-3 30,-10 8,-6 12,-15 12,-25 0,-11 -3,-20 -10,-26 -7,-6 -23,-13 -47,-19 -33,-9 -57,-21 -71,-35 -14,-15 -21,-35 -21,-60 0,-33 11,-59 33,-80 22,-20 50,-31 85,-31 19,0 37,3 54,8 17,5 33,13 48,23l-30 67c-10,-9 -21,-16 -32,-21 -11,-4 -22,-6 -33,-6 -11,0 -20,2 -27,8 -7,5 -11,12 -11,20 0,9 3,16 9,21 7,5 18,10 36,14l4 2c38,10 63,21 75,33 8,9 14,19 18,31 5,11 7,24 7,39 0,36 -12,65 -36,87 -24,22 -55,33 -95,33 -24,0 -46,-4 -65,-12 -20,-8 -38,-21 -56,-38l42 -69z"/>
   <path class="fil1" d="M2092 178l57 23 32 -83c7,-20 28,-30 47,-22l104 43c19,8 28,30 21,49l-31 84 42 17 19 8 -297 788 -19 -8 -22 -9c-29,69 -84,113 -134,112l-18 48c-6,15 -22,22 -36,17l0 0c-14,-6 -21,-23 -16,-38l18 -47c-39,-34 -51,-107 -28,-180l-35 -14 -5 -2 297 -788 4 2zm-112 863l-84 -34c-7,31 1,61 22,70 21,9 47,-7 62,-36zm220 -819l71 29c1,-2 1,-3 2,-5l18 -48c3,-8 -1,-19 -9,-22l-41 -17c-8,-3 -18,1 -21,10l-18 48c-1,2 -1,3 -2,5zm-157 759l183 -487 -152 -62 -183 487 152 62zm59 -624l152 62 29 -77 -151 -62 -30 77z"/>
   <path class="fil0" d="M1222 1053l426 0c35,0 64,30 64,66l0 73c14,-8 33,-7 45,6l0 0c15,14 15,39 1,54l-46 50 0 251c0,37 -29,67 -64,67l-426 0c-36,0 -65,-30 -65,-67l0 -434c0,-36 29,-66 65,-66zm39 211l0 0c14,-15 38,-16 53,-2l176 168 159 -171 0 -100c0,-23 -18,-41 -40,-41l-348 0c-22,0 -40,18 -40,41l0 355c0,22 18,41 40,41l348 0c22,0 40,-19 40,-41l0 -144 -131 141c-14,16 -38,16 -52,1l0 0 -203 -193c-15,-15 -16,-39 -2,-55z"/>
   <path class="fil0" d="M1460 1681l-269 0c-81,0 -80,72 -45,94 25,15 141,8 180,8 39,0 150,7 177,-7 45,-23 33,-95 -43,-95z"/>
  </g>
 </g>
</svg>
