<?xml version="1.0" encoding="UTF-8"?>
<!DOCTYPE svg PUBLIC "-//W3C//DTD SVG 1.1//EN" "http://www.w3.org/Graphics/SVG/1.1/DTD/svg11.dtd">
<!-- Creator: CorelDRAW X7 -->
<svg xmlns="http://www.w3.org/2000/svg" xml:space="preserve" width="26mm" height="26mm" version="1.1" style="shape-rendering:geometricPrecision; text-rendering:geometricPrecision; image-rendering:optimizeQuality; fill-rule:evenodd; clip-rule:evenodd"
viewBox="0 0 2600 2600"
 xmlns:xlink="http://www.w3.org/1999/xlink">
 <defs>
  <style type="text/css">
   <![CDATA[
    .fil0 {fill:#003399}
    .fil1 {fill:#FF6600}
   ]]>
  </style>
 </defs>
 <g id="Слой_x0020_1">
  <metadata id="CorelCorpID_0Corel-Layer"/>
  <g id="_2131787576672">
   <path class="fil0" d="M1264 2009c4,3 10,9 15,13l110 94c-8,3 -14,6 -24,9 -66,19 -128,-25 -142,-29 3,-9 7,-12 12,-19 8,-12 18,-27 22,-41 3,-9 4,-20 7,-27zm89 212l-40 0c-75,-6 -136,-48 -147,-51 -11,7 -16,13 -30,19 -43,18 -90,11 -127,-18 -20,-15 -28,-32 -39,-54 -33,5 -46,7 -81,-5 -36,-14 -80,-55 -82,-87 -54,0 -77,0 -110,-25 -26,-19 -45,-44 -54,-80 -29,0 -40,-1 -60,-10 -13,-5 -32,-18 -40,-28 -23,-27 -35,-52 -35,-103 -18,-9 -33,-18 -51,-29l-50 -29c-12,19 -18,28 -45,28 -11,0 -30,-8 -40,-11 -12,-4 -23,-7 -36,-11l-151 -46c-44,-13 -86,-18 -85,-62 0,-22 126,-365 138,-403 38,-116 89,-246 128,-365 8,-25 18,-47 49,-47 21,0 220,98 261,115 54,22 27,28 48,35 10,4 161,13 188,16l191 16c10,-1 138,-98 180,-109 102,-26 211,-32 308,15 7,4 12,7 20,10 24,10 38,19 61,33 29,16 44,33 63,32l142 -12c25,-3 36,2 52,-10l189 -123c11,-7 23,-18 42,-18 31,0 43,33 52,52l103 208c46,93 93,185 138,279l104 208c25,51 -28,68 -42,76l-122 58c-21,11 -127,64 -143,64 -32,0 -41,-19 -60,-49 -9,2 -12,6 -18,10l-105 77c12,23 18,45 18,67l-93 0c-1,-18 -13,-42 -44,-69 -5,-4 -6,-4 -11,-9l-83 -79c-8,-9 -12,-12 -21,-19l-31 -31c-5,-4 -6,-4 -11,-9 -7,-7 -12,-14 -20,-20 -5,-5 -6,-5 -11,-9l-229 -215c-5,-4 -6,-4 -11,-9 -8,-8 -11,-11 -21,-19 -14,-11 -28,-27 -42,-39 -32,-24 -52,-61 -98,-61 -15,0 -32,0 -46,7 -4,2 -1,1 -4,3 -8,8 -34,66 -73,106 -61,62 -96,81 -191,81 -100,0 -160,-113 -85,-227 34,-52 25,-12 37,-77 6,-30 15,-62 28,-87l-314 -26c-1,13 -5,30 -8,43 -18,94 -46,186 -77,274 -17,48 -40,95 -58,143 -5,12 -11,21 -16,35 -9,22 -46,85 -49,100 17,5 32,19 48,28 9,5 16,8 24,13 7,4 15,11 23,13 13,-20 25,-37 45,-51 59,-42 146,-21 179,41 10,-1 15,-5 26,-7 28,-5 57,-2 81,9 14,7 30,16 40,26 12,12 19,25 28,38 42,-20 103,-11 140,17l31 32c13,18 25,44 25,69 23,0 45,9 60,18 14,8 34,21 38,38 10,-7 13,-13 30,-13 22,0 31,8 46,20 11,9 20,17 31,27 11,9 21,17 32,27 10,9 20,17 31,26l79 68c54,47 100,19 100,-9 0,-41 -26,-57 -52,-80 -6,-5 -8,-6 -14,-12 -6,-6 -8,-6 -14,-11 -5,-5 -6,-7 -11,-11 -32,-26 -60,-56 -92,-81 -6,-4 -7,-5 -12,-10 -6,-6 -8,-7 -14,-12 -5,-5 -7,-7 -13,-12 -7,-6 -7,-7 -13,-12l-104 -91c-5,-4 -7,-7 -12,-11 -17,-16 -38,-26 -38,-59 0,-23 22,-43 45,-43 23,0 38,19 54,33 6,5 8,6 14,12 7,7 9,8 15,13l120 106c6,6 9,7 15,13l45 41c7,5 9,7 15,13l136 117c29,27 82,78 120,37 19,-21 16,-51 0,-73 -7,-11 -18,-16 -27,-25 -10,-9 -18,-17 -28,-26 -28,-23 -57,-46 -83,-71 -38,-37 -121,-106 -167,-147l-55 -48c-15,-13 -48,-36 -48,-56 0,-38 14,-54 52,-54 15,0 75,55 90,70 23,22 49,40 72,62l113 100c6,5 7,6 13,11l114 100 0 239c-40,29 -94,37 -148,8 -11,46 -65,97 -121,97 -70,0 -62,-15 -95,-23 -10,7 -6,7 -25,18 -28,17 -57,26 -84,28zm-253 -117c-26,6 -45,-4 -45,-33 0,-15 43,-71 53,-87 17,-25 41,-27 56,-11 28,28 -24,78 -25,78 -12,7 -39,4 -39,53zm-160 -77c-31,0 -50,-21 -50,-54 0,-10 16,-31 21,-39 5,-6 8,-11 13,-18 5,-7 9,-13 13,-19 24,-38 23,-64 73,-64 18,0 43,20 43,51 0,25 -42,77 -58,100 -5,6 -8,13 -13,19l-11 12c-8,6 -20,12 -31,12zm-161 -94c-23,0 -41,-13 -47,-32 -7,-28 10,-47 30,-75 20,-27 27,-57 65,-57 28,0 55,36 40,61l-47 68c-7,12 -12,35 -41,35zm-146 -105c-22,0 -32,-16 -32,-38 0,-10 36,-71 57,-76 12,-3 25,4 31,11 22,27 -6,49 -28,85 -5,8 -16,18 -28,18zm387 -457c-33,0 -53,0 -53,-36 0,-41 47,-76 57,-91 10,-16 7,-68 28,-122 17,-42 127,-108 168,-133 35,-22 27,-21 69,-29 57,-12 116,-16 172,0 26,8 44,20 66,30 23,10 41,21 62,34 71,43 30,44 160,30l100 -8c0,11 6,31 9,42 26,91 54,178 91,265l119 236c7,11 12,22 19,32l-96 71c-11,8 -21,16 -32,23 -8,-5 -11,-10 -18,-17l-522 -483c-33,-29 -60,-41 -115,-41 -29,0 -79,11 -97,21 -16,9 -19,18 -27,34 -27,56 -86,142 -160,142zm914 -353c10,-3 118,-76 137,-88 8,-5 12,-9 21,-11 3,11 70,145 77,159l157 316c14,29 76,144 77,161 -16,3 -172,84 -193,89l-84 -139c-59,-110 -79,-155 -124,-270 -16,-41 -44,-127 -55,-171 -4,-12 -8,-36 -13,-46zm-1592 629c-7,0 -37,-11 -47,-14l-92 -28c-17,-6 -33,-11 -49,-15 12,-26 173,-498 192,-548 5,-15 9,-28 15,-43l22 -62c2,-8 6,-13 7,-24l186 85c0,72 -68,288 -92,348l-66 156c-1,4 -70,145 -76,145z"/>
   <path class="fil1" d="M988 97c0,34 5,48 10,79 10,59 65,421 71,439 21,56 109,39 109,-16 0,-26 -76,-494 -81,-509 -7,-25 -25,-37 -45,-40l-15 0c-25,3 -49,22 -49,47z"/>
   <path class="fil1" d="M1469 650c67,0 63,-48 70,-102 8,-51 14,-97 21,-147l30 -219c8,-59 31,-132 -56,-132 -54,0 -53,95 -58,130l-34 252c-4,30 -8,56 -12,86 -6,44 -21,89 6,115 6,6 22,17 33,17z"/>
   <path class="fil1" d="M1754 640l0 19c0,38 68,76 105,18l173 -275c19,-28 36,-61 9,-91 -22,-24 -66,-30 -93,12l-126 200c-5,8 -9,15 -14,23 -10,15 -54,80 -54,94z"/>
   <path class="fil1" d="M545 391c0,29 -1,32 21,61 9,13 17,25 26,39 18,27 34,50 51,77 18,27 34,50 52,77 9,14 17,27 26,39 32,44 100,17 100,-25 0,-36 -1,-31 -19,-59l-131 -195c-9,-14 -17,-28 -26,-40 -33,-42 -100,-16 -100,26z"/>
   <path class="fil1" d="M1847 1809l547 0c46,0 84,39 84,86l0 96c18,-11 42,-9 57,7l0 0c19,19 20,51 2,71l-59 65 0 329c0,48 -38,87 -84,87l-547 0c-45,0 -83,-39 -83,-87l0 -568c0,-47 38,-86 83,-86zm50 276l0 0c18,-20 49,-21 68,-2l227 220 204 -225 0 -131c0,-29 -23,-53 -51,-53l-448 0c-28,0 -51,24 -51,53l0 465c0,29 23,53 51,53l448 0c28,0 51,-24 51,-53l0 -188 -168 184c-18,20 -49,21 -68,2l0 0 -260 -254c-20,-18 -21,-50 -3,-71z"/>
  </g>
 </g>
</svg>
