<?xml version="1.0" encoding="UTF-8"?>
<!DOCTYPE svg PUBLIC "-//W3C//DTD SVG 1.1//EN" "http://www.w3.org/Graphics/SVG/1.1/DTD/svg11.dtd">
<!-- Creator: CorelDRAW X7 -->
<svg xmlns="http://www.w3.org/2000/svg" xml:space="preserve" width="26mm" height="26mm" version="1.1" style="shape-rendering:geometricPrecision; text-rendering:geometricPrecision; image-rendering:optimizeQuality; fill-rule:evenodd; clip-rule:evenodd"
viewBox="0 0 2600 2600"
 xmlns:xlink="http://www.w3.org/1999/xlink">
 <defs>
  <style type="text/css">
   <![CDATA[
    .fil0 {fill:#003399}
    .fil1 {fill:#FF6600}
    .fil3 {fill:#FF6600;fill-rule:nonzero}
    .fil2 {fill:white;fill-rule:nonzero}
   ]]>
  </style>
 </defs>
 <g id="Слой_x0020_1">
  <metadata id="CorelCorpID_0Corel-Layer"/>
  <g id="_2132424276640">
   <path class="fil0" d="M619 2066c-1,47 57,88 113,91 64,4 137,1 202,1 134,0 269,-2 403,0 4,19 3,91 1,113 -2,45 -31,43 -75,43l-936 0c-124,0 -118,8 -118,-112 0,-148 -5,-306 0,-452l4 -639c0,-74 -20,-148 80,-128 5,78 1,172 0,251 0,76 53,61 65,51 18,-15 38,-55 56,-75l6 6c1,1 2,2 2,3l19 27c6,9 23,34 28,38 10,8 66,28 66,-46 0,-75 -7,-186 1,-257 25,0 56,-4 79,3 4,38 -3,155 -3,211 0,76 -8,854 7,871zm1015 -1781l25 0 -880 -1c-43,0 -76,-5 -85,36l-1 463 0 815c-3,69 0,146 0,217 0,70 -4,153 0,222 3,40 29,43 70,43l1147 0c41,0 69,0 73,-40l1 -1257 -1 -463c-7,-34 -34,-39 -70,-35l10 0 0 316 -140 -93 -149 93 0 -316zm-497 779l80 1 0 -77 -79 -1 -1 77zm322 0l80 1 1 -77 -80 -1 -1 77zm-160 1l78 0 2 -77 -81 0 1 77zm1088 -145l79 1c0,-75 10,-380 1,-413 -21,-35 -33,-28 -81,-28 -73,0 -275,4 -321,-1 -1,-37 5,-148 -3,-173 -4,-51 -53,-93 -105,-99 -37,-4 -548,-2 -847,-1 -96,0 -171,0 -200,0 -116,0 -216,-11 -270,43 -20,22 -20,41 -29,74 0,0 1,80 1,80l4 499c-101,8 -231,1 -333,1 -155,0 -151,91 -151,184l-3 509c4,148 0,303 0,453 0,74 -3,153 0,226 2,64 48,111 115,117 66,5 375,0 468,0 66,0 432,-4 465,1 6,58 -4,72 29,114 21,26 59,41 109,41l892 0c70,0 232,11 281,-16 76,-42 60,-135 60,-230 0,-190 -5,-387 0,-576 3,-102 0,-208 0,-311 0,-142 16,-108 -48,-183l-226 -250c-14,-15 -20,-31 -47,-34 -46,-4 -121,6 -163,-2l0 -387c36,-4 297,-4 323,2 -7,26 0,310 0,359zm-2097 846l241 1 1 -77 -242 -1 0 77zm1855 0l241 1 1 -76 -241 -2 -1 77zm-1250 -1249l242 1 0 -77 -242 0 0 76zm0 157l241 1 1 -78 -242 0 0 77zm1251 1406l240 -1 1 -77 -241 0 0 78zm0 -469l240 0 1 -78 -241 0 0 78zm-1856 -61l0 27 0 19 1 15 239 0 2 -78 -242 0 0 17zm1855 373l242 0 0 -78 -240 0 -2 78zm-1855 0l241 0 0 -78 -240 0 -1 78zm605 -469l890 1 -3 -77 -888 -1 1 77zm0 313l886 0 1 -77 -888 -1 1 78zm0 -157l23 1 849 0 15 -1 0 -76 -888 -1 1 77zm-521 -488c11,-10 18,-21 36,-22 11,-1 17,1 26,5l18 15 0 -139 -79 0 -1 141zm2093 925c3,70 1,143 1,213 -1,218 21,210 -106,210l-972 0c-74,0 -153,18 -130,-78 76,0 114,-11 143,-59 31,-51 8,-115 17,-175 94,-8 496,8 551,-4 40,-9 91,-50 88,-91 13,-17 6,-667 6,-778 -1,-58 -8,-212 1,-259l117 -1c17,71 -23,208 28,268 65,77 154,30 256,47l0 707zm-1572 -1165l0 284c0,37 11,55 51,55l785 0c66,0 51,-64 51,-147l0 -192c0,-35 -14,-51 -51,-51l-785 0c-37,0 -51,16 -51,51zm80 259l728 2 -1 -232 -726 -2 -1 232z"/>
   <path class="fil1" d="M2064 2470l13 0 285 0c127,0 105,8 106,-210 0,-70 2,-143 -1,-213l0 -707c-102,-17 -191,30 -256,-47 -51,-60 -11,-197 -28,-268l-117 1c0,3 -1,7 -2,11l0 -91c42,8 117,-2 163,2 27,3 33,19 47,34l226 250c64,75 48,41 48,183 0,103 3,209 0,311 -5,189 0,386 0,576 0,95 16,188 -60,230 -49,27 -211,16 -281,16l-130 0 -13 0 -749 0c-50,0 -88,-15 -109,-41 -33,-42 -23,-56 -29,-114 -11,-1 -57,-2 -118,-2l243 0c-13,1 -27,1 -42,1 -23,96 56,78 130,78l674 0zm0 -488l0 -706 1 9c0,88 4,516 -1,697zm81 -216l241 1 1 -76 -241 -2 -1 77zm1 314l240 -1 1 -77 -241 0 0 78zm0 -469l240 0 1 -78 -241 0 0 78zm-1 312l242 0 0 -78 -240 0 -2 78z"/>
   <path class="fil2" d="M1371 647c0,-9 3,-16 9,-23 6,-6 14,-9 23,-9 9,0 17,3 23,9 6,6 9,14 9,23 0,9 -3,16 -9,22 -6,6 -14,9 -23,9 -9,0 -17,-3 -23,-9 -6,-6 -9,-13 -9,-22zm62 -52l-56 0 0 -64 18 0c12,0 21,-3 27,-7 7,-5 10,-12 10,-21 0,-7 -3,-13 -8,-18 -4,-5 -10,-7 -18,-7 -7,0 -13,2 -17,5 -4,4 -7,10 -7,18l-55 0 0 -1c0,-20 7,-36 22,-49 15,-12 35,-18 60,-18 23,0 41,7 55,19 14,13 21,30 21,51 0,17 -5,31 -15,42 -9,11 -22,17 -37,17l0 33z"/>
   <path class="fil3" d="M187 716c0,-27 10,-50 29,-69 20,-19 44,-29 72,-29 29,0 53,9 72,28 20,19 29,43 29,70 0,28 -10,52 -29,70 -19,19 -43,29 -72,29 -28,0 -52,-10 -72,-29 -19,-19 -29,-42 -29,-70zm194 -161l-173 0 0 -201 54 0c38,0 67,-7 86,-22 20,-15 30,-36 30,-64 0,-22 -8,-41 -23,-57 -15,-15 -34,-23 -56,-23 -23,0 -42,6 -55,18 -13,13 -21,30 -22,54l-172 0 0 -2c0,-63 23,-114 70,-151 46,-38 109,-57 187,-57 71,0 128,20 171,60 44,40 65,92 65,157 0,54 -15,98 -45,132 -29,34 -68,51 -117,53l0 103z"/>
  </g>
 </g>
</svg>
