<?xml version="1.0" encoding="iso-8859-1"?>
<!-- Generator: Adobe Illustrator 19.0.0, SVG Export Plug-In . SVG Version: 6.00 Build 0)  -->
<svg xmlns="http://www.w3.org/2000/svg" xmlns:xlink="http://www.w3.org/1999/xlink" version="1.1" id="Layer_1" x="0px" y="0px" viewBox="0 0 503.026 503.026" style="enable-background:new 0 0 503.026 503.026;" xml:space="preserve" width="512" height="512">
<path d="M381.423,308.956c0-4.142-3.358-7.5-7.5-7.5s-7.5,3.358-7.5,7.5v19.033c-28.735-3.023-57.354,6.974-78.007,27.626  c-5.603,5.603-10.418,11.795-14.405,18.415v-43.094c4.373,0.599,8.749,0.901,13.103,0.901c25.243,0,49.68-9.93,67.908-28.157  c22.63-22.63,32.459-54.825,26.389-86.258c0.003-0.083,0.013-0.165,0.013-0.249v-27.758c0-4.142-3.358-7.5-7.5-7.5  s-7.5,3.358-7.5,7.5v20.033c-28.735-3.024-57.354,6.974-78.007,27.626c-5.603,5.603-10.418,11.795-14.405,18.415v-39.906  c3.63,0.459,7.26,0.712,10.874,0.712c22.66,0,44.597-8.914,60.96-25.277c20.281-20.281,29.108-49.119,23.716-77.291v-32.9  c0-4.142-3.358-7.5-7.5-7.5s-7.5,3.358-7.5,7.5v24.916c-25.485-2.408-50.788,6.564-69.108,24.883  c-4.352,4.352-8.171,9.101-11.442,14.15V127.62c12.74-15.222,19.947-34.573,19.947-54.967c0-28.756-14.314-55.447-38.29-71.398  c-2.516-1.674-5.791-1.674-8.309,0c-12.826,8.532-23.136,20.359-29.815,34.2c-1.8,3.73-0.235,8.214,3.496,10.014  c3.731,1.8,8.213,0.235,10.014-3.495c4.771-9.888,11.791-18.532,20.46-25.246c17.272,13.365,27.443,33.913,27.443,55.925  c0,22.014-10.17,42.561-27.444,55.926c-17.275-13.365-27.445-33.913-27.445-55.926c0-4.142-3.358-7.5-7.5-7.5s-7.5,3.358-7.5,7.5  c0,20.392,7.205,39.74,19.942,54.961v17.156c-3.27-5.047-7.087-9.794-11.438-14.144c-18.319-18.32-43.622-27.29-69.108-24.883  V80.828c0-4.142-3.358-7.5-7.5-7.5s-7.5,3.358-7.5,7.5v32.9c-5.392,28.172,3.435,57.011,23.716,77.291  c16.364,16.365,38.298,25.278,60.959,25.277c3.611,0,7.241-0.253,10.87-0.712v39.899c-3.987-6.617-8.799-12.807-14.401-18.408  c-20.653-20.653-49.271-30.65-78.007-27.626v-20.033c0-4.142-3.358-7.5-7.5-7.5c-4.142,0-7.5,3.358-7.5,7.5v27.758  c0,0.084,0.01,0.165,0.013,0.249c-6.07,31.433,3.759,63.629,26.389,86.259c18.229,18.229,42.662,28.158,67.907,28.157  c4.351,0,8.727-0.303,13.099-0.901v43.087c-3.987-6.617-8.799-12.807-14.401-18.408c-20.653-20.652-49.271-30.651-78.007-27.626  v-19.033c0-4.142-3.358-7.5-7.5-7.5c-4.142,0-7.5,3.358-7.5,7.5v27.074c-6.043,31.412,3.788,63.577,26.402,86.191  c18.229,18.229,42.662,28.158,67.907,28.157c4.351,0,8.727-0.303,13.099-0.901v46.049c0,4.142,3.358,7.5,7.5,7.5h30  c4.142,0,7.5-3.358,7.5-7.5v-46.049c4.373,0.599,8.749,0.901,13.103,0.901c25.243,0,49.68-9.93,67.908-28.157  c2.929-2.929,2.929-7.677,0-10.606c-2.928-2.929-7.677-2.929-10.606,0c-18.04,18.041-43.29,26.447-68.397,23.005  c-3.443-25.107,4.964-50.356,23.004-68.397c18.041-18.041,43.29-26.447,68.393-23.005c2.118,15.604-0.345,31.718-7.087,45.896  c-1.779,3.74-0.189,8.215,3.552,9.994c3.741,1.779,8.215,0.188,9.994-3.552c8.733-18.362,11.395-39.458,7.549-59.501V308.956z   M299.022,247.681c18.041-18.041,43.293-26.448,68.397-23.005c3.443,25.107-4.964,50.357-23.004,68.397  c-18.041,18.041-43.29,26.448-68.397,23.005C272.574,290.971,280.982,265.722,299.022,247.681z M296.059,141.233  c15.704-15.704,37.621-23.103,59.478-20.299c2.803,21.857-4.595,43.774-20.299,59.478c-15.704,15.704-37.62,23.103-59.478,20.299  C272.957,178.854,280.355,156.937,296.059,141.233z M227.265,200.711c-21.852,2.801-43.774-4.596-59.478-20.299  c-15.704-15.704-23.102-37.621-20.299-59.478c21.853-2.8,43.774,4.596,59.478,20.3C222.67,156.937,230.068,178.854,227.265,200.711z   M227.008,316.078c-3.699,0.507-7.4,0.757-11.082,0.757c-21.307-0.001-41.933-8.38-57.314-23.762  c-18.041-18.041-26.448-43.29-23.004-68.397c25.103-3.443,50.355,4.964,68.396,23.005  C222.044,265.722,230.451,290.971,227.008,316.078z M227.008,434.619c-3.699,0.507-7.4,0.757-11.082,0.757  c-21.307-0.001-41.933-8.38-57.314-23.762c-18.041-18.041-26.448-43.29-23.004-68.397c25.103-3.444,50.355,4.964,68.396,23.005  C222.044,384.262,230.451,409.512,227.008,434.619z M244.01,488.026v-346.33c1.096,0.806,2.208,1.597,3.348,2.356  c1.258,0.837,2.707,1.256,4.154,1.256c1.448,0,2.896-0.418,4.154-1.256c1.139-0.758,2.249-1.547,3.343-2.352v346.327H244.01z"/>















</svg>
