<svg width="11" height="11" viewBox="0 0 11 11" fill="none" xmlns="http://www.w3.org/2000/svg">
<path fill-rule="evenodd" clip-rule="evenodd" d="M5.19272 3.37412C5.4539 3.02259 5.54756 2.6521 5.25217 2.32507C4.58928 1.39868 4.14348 0.825799 3.86385 0.549914C3.33223 0.0254206 2.45771 0.0963665 1.99729 0.549465C1.75 0.792829 1.66628 0.876401 1.41236 1.13399C-0.00199908 2.54734 0.860551 5.53511 3.15353 7.82747C5.44598 10.1193 8.43721 10.9812 9.85454 9.5649C10.0888 9.3393 10.2872 9.14105 10.4437 8.97589C10.8949 8.49959 10.9634 7.66469 10.4407 7.1223C10.1728 6.84422 9.62578 6.42046 8.6592 5.72993C8.36316 5.46555 8.01216 5.52285 7.69035 5.73371C7.53556 5.83513 7.42291 5.93774 7.21019 6.1504L6.82392 6.5364C6.77304 6.58724 6.08221 6.2417 5.4116 5.57128C4.74063 4.90049 4.3949 4.21048 4.44554 4.15991L4.83208 3.77365C4.89957 3.70617 4.93183 3.67351 4.97321 3.63008C5.05942 3.53959 5.1308 3.45747 5.19272 3.37412ZM7.53697 7.24689L7.92333 6.86082C8.0404 6.74378 8.11627 6.67182 8.17799 6.6222C9.02473 7.2295 9.51512 7.61137 9.71542 7.81923C9.83568 7.94403 9.817 8.17175 9.71245 8.28211C9.56777 8.43483 9.37981 8.62267 9.14914 8.84487C8.23264 9.76061 5.81802 9.06483 3.86671 7.11406C1.91478 5.16267 1.21846 2.75073 2.12805 1.84179C2.38094 1.58527 2.46107 1.50528 2.70483 1.26539C2.79623 1.17545 3.0452 1.15525 3.15638 1.26494C3.37167 1.47735 3.77103 1.98806 4.35851 2.80538C4.3281 2.84309 4.29011 2.8857 4.24389 2.93423C4.20996 2.96984 4.18169 2.99846 4.1199 3.06023L3.73374 3.44612C3.0768 4.10218 3.63627 5.21876 4.69943 6.28162C5.76185 7.34375 6.88026 7.90315 7.53697 7.24689Z" fill="white"/>
</svg>
