<svg width="18" height="18" viewBox="0 0 18 18" fill="none" xmlns="http://www.w3.org/2000/svg">
<path fill-rule="evenodd" clip-rule="evenodd" d="M7.55467 14.9145C3.38234 14.9145 0 11.5758 0 7.45727C0 3.33873 3.38234 0 7.55467 0C11.727 0 15.1094 3.33873 15.1094 7.45727C15.1094 9.20041 14.5035 10.8039 13.4882 12.0736L17.5154 16.0488C17.8625 16.3915 17.8625 16.9469 17.5154 17.2896C17.1683 17.6322 16.6055 17.6322 16.2584 17.2896L12.2313 13.3143C10.945 14.3165 9.32057 14.9145 7.55467 14.9145ZM11.5825 11.5454C10.5418 12.5445 9.12106 13.1599 7.55467 13.1599C4.36407 13.1599 1.77757 10.6067 1.77757 7.45727C1.77757 4.3078 4.36407 1.75465 7.55467 1.75465C10.7453 1.75465 13.3318 4.3078 13.3318 7.45727C13.3318 9.00347 12.7084 10.4059 11.6961 11.4331C11.6757 11.45 11.6559 11.4678 11.6368 11.4867C11.6176 11.5057 11.5995 11.5252 11.5825 11.5454Z" fill="white"/>
</svg>
