<?xml version="1.0" encoding="UTF-8"?>
<!DOCTYPE svg PUBLIC "-//W3C//DTD SVG 1.1//EN" "http://www.w3.org/Graphics/SVG/1.1/DTD/svg11.dtd">
<!-- Creator: CorelDRAW X7 -->
<svg xmlns="http://www.w3.org/2000/svg" xml:space="preserve" width="26mm" height="26mm" version="1.1" style="shape-rendering:geometricPrecision; text-rendering:geometricPrecision; image-rendering:optimizeQuality; fill-rule:evenodd; clip-rule:evenodd"
viewBox="0 0 2600 2600"
 xmlns:xlink="http://www.w3.org/1999/xlink">
 <defs>
  <style type="text/css">
   <![CDATA[
    .fil1 {fill:#003399}
    .fil0 {fill:#FF6600}
   ]]>
  </style>
 </defs>
 <g id="Слой_x0020_1">
  <metadata id="CorelCorpID_0Corel-Layer"/>
  <g id="_2132424068704">
   <path class="fil0" d="M2312 2449l0 -150c12,1 56,32 124,6 5,-2 10,-5 16,-7l-1 152 -12 -10c-2,-2 -2,-3 -4,-5l-32 -32c-17,-17 -27,-15 -41,-1 -6,6 -12,11 -17,16l-33 31zm54 -467c73,-11 131,51 138,122 9,83 -44,149 -106,158 -74,10 -131,-50 -139,-122 -8,-79 40,-149 107,-158zm-100 406c-6,3 -60,1 -71,1l-326 0c-11,0 -22,1 -25,-12 -1,-8 0,-143 0,-164l0 -743c0,-43 -2,-42 35,-42l542 0c12,0 19,4 20,17 1,26 0,57 0,83 0,27 0,55 0,82 0,110 0,220 0,330 -5,0 -16,-5 -23,-6 -25,-7 -49,-7 -75,0 -15,4 -29,10 -41,18 -11,7 -10,5 -25,5l-310 0c-11,0 -34,-3 -36,23 -2,24 16,28 33,28l280 0c-1,8 -20,25 -29,88 -14,4 -258,-3 -270,2 -10,5 -18,19 -13,34 6,14 15,16 32,16l227 0c27,0 23,-2 25,9 7,47 25,67 31,81 -87,1 -176,-1 -263,0 -11,0 -33,-2 -41,3 -8,5 -16,19 -10,34 5,13 15,15 30,15 14,0 29,0 43,0 85,0 179,-2 261,0l-1 98zm25 132l9 0c4,-2 8,-3 12,-5 5,-3 8,-5 11,-8l55 -53c3,-3 1,-1 3,-3l47 46c6,5 14,13 19,17 4,3 9,4 13,6l10 0c5,-3 9,-3 14,-7 12,-12 12,-36 12,-52l1 -180c0,-8 -1,-16 2,-20 10,-14 17,-21 26,-37 20,-39 32,-92 21,-146 -7,-37 -21,-62 -41,-88 -6,-9 -19,-18 -19,-22l0 -490c0,-28 2,-49 -10,-70 -6,-12 -18,-22 -29,-27 -4,-2 -10,-3 -14,-5l-582 0c-9,5 -38,8 -49,47 -6,19 -3,76 -3,100l0 830c0,29 0,56 25,75 23,17 49,13 80,13 120,-1 241,0 362,0 0,27 -4,53 10,69 6,8 8,5 15,10z"/>
   <path class="fil0" d="M1968 1585c6,-3 148,-1 168,-1 56,0 112,-1 168,0l-1 93 -335 0 0 -92zm-12 -53c-24,4 -33,23 -33,49 0,28 0,56 0,85 0,21 -2,48 22,60 12,5 56,3 73,3 13,0 287,1 299,0 23,-3 32,-25 32,-49 0,-29 0,-57 0,-85 0,-22 2,-49 -23,-60 -12,-5 -56,-3 -72,-3 -8,0 -290,-1 -298,0z"/>
   <path class="fil0" d="M1931 1849c5,23 27,20 41,20l287 0c19,0 39,0 58,0 10,0 17,-1 23,-7 4,-4 8,-14 6,-24 -4,-25 -27,-21 -40,-21l-345 0c-11,0 -17,0 -23,7 -5,5 -9,14 -7,25z"/>
   <path class="fil1" d="M2038 1157c-2,110 -2,110 -3,219l-81 0c1,-121 2,-133 2,-254l4 -443c-132,-9 -808,15 -841,-8 -24,-17 -17,-54 -18,-89 -6,-155 -133,-270 -285,-257 -9,1 -18,3 -27,5l0 -84c59,-9 125,-7 197,-7 290,0 580,0 871,0 149,0 272,-19 383,56 79,55 151,151 154,295 2,102 -5,89 -134,89 -70,0 -148,-4 -218,0l-4 478zm-1438 -661c-5,11 -8,24 -11,36 -14,64 -7,570 -7,657 0,73 5,830 -2,882 -13,104 -49,119 -70,164l580 0c3,-44 8,-149 -8,-180 -19,-36 -9,-30 -46,-49 -73,-38 -72,-33 -68,-112 3,-50 5,-35 -17,-71 -37,-59 -47,-57 -6,-121 17,-27 27,-30 24,-70 -2,-23 -7,-64 3,-82 9,-16 36,-26 56,-37 30,-16 30,-7 47,-43 33,-70 24,-78 110,-73 48,3 37,2 70,-20 13,-9 40,-31 57,-32 47,-3 54,56 130,52 92,-5 79,1 112,71 17,36 16,29 49,45 70,35 63,33 58,123 -2,35 10,44 25,66 42,67 29,66 -10,126 -22,35 -15,29 -13,79 1,29 7,53 -15,70 -11,8 -48,26 -61,33 -29,13 -28,23 -41,50 -14,29 -8,133 -7,174 55,6 130,1 187,1 28,0 51,0 73,-2l0 85c-82,10 -175,-3 -259,3 -12,105 29,244 -49,227 -18,-4 -163,-104 -173,-106 -15,-3 -141,90 -170,102 -83,38 -49,-120 -58,-222 -34,-7 -608,-2 -696,-2 -81,0 -134,6 -203,-33 -48,-27 -87,-69 -112,-123 -19,-41 -41,-168 -21,-211 14,-33 53,-25 91,-25 73,0 311,5 351,-1l1 -828c-1,-151 0,-302 0,-453 0,-60 2,-106 13,-150l86 0zm1146 421l-461 0c-32,0 -58,-18 -49,-54 8,-32 43,-31 76,-31l418 0c34,0 67,1 72,34 7,40 -23,51 -56,51zm3 159l-921 0c-69,0 -71,-85 0,-85l921 0c74,0 73,85 0,85zm20 75c45,10 44,68 7,81 -23,8 -725,3 -825,3 -32,0 -114,4 -140,-1 -43,-9 -47,-69 -6,-82 19,-6 620,-2 687,-2 56,0 236,-8 277,1zm-412 381c193,47 243,284 89,411 -153,126 -391,-26 -348,-230 27,-127 147,-209 259,-181zm-25 82c187,27 148,313 -38,287 -69,-9 -128,-78 -117,-162 9,-74 74,-137 155,-125zm980 -1022l-1129 2c-4,-70 -11,-106 -36,-160 -34,-71 -71,-89 -80,-110 250,-3 501,0 752,0 104,0 266,-15 348,27 75,38 147,121 145,241zm-855 1837c-28,-12 -118,-82 -141,-81 -26,0 -112,69 -142,81l-1 -310c52,-2 43,-9 80,17 65,46 57,47 125,0 33,-23 30,-22 79,-16l0 309zm12 -946c36,57 14,73 112,113 1,28 -8,72 2,97 7,16 37,54 37,63 1,10 -29,51 -36,64 -13,27 -2,68 -3,100 -16,6 -64,30 -73,40 -9,9 -32,60 -38,75 -115,-4 -73,-7 -154,42 -22,-10 -39,-28 -60,-39 -26,-14 -64,-2 -94,-4 -46,-66 6,-53 -93,-105 -5,-2 -5,-2 -10,-6 -1,0 -2,-1 -3,-1l-7 -6c0,-30 9,-71 -3,-96 -9,-20 -31,-42 -37,-64 68,-114 36,-46 41,-161 98,-35 81,-70 112,-114 28,-1 67,10 91,-2 22,-10 40,-31 63,-40 22,11 40,29 59,39 26,13 64,1 94,5zm-1333 531l364 -1c15,119 -75,221 -182,222 -110,1 -198,-100 -182,-221z"/>
   <path class="fil0" d="M130 150l0 99 0 100 0 99 0 79c323,1 79,0 474,1 38,0 44,13 68,31l168 126 1 -53c0,-307 0,-290 -1,-582l-710 0 0 100zm79 298l410 0c52,0 45,6 78,31 23,17 44,31 63,47 5,-123 2,-271 2,-396l-553 0 0 318z"/>
   <polygon class="fil0" points="604,329 683,329 683,249 604,249 "/>
   <polygon class="fil0" points="446,329 525,329 525,249 446,249 "/>
   <polygon class="fil0" points="288,329 367,329 367,249 288,249 "/>
  </g>
 </g>
</svg>
