<?xml version="1.0" encoding="UTF-8"?>
<!DOCTYPE svg PUBLIC "-//W3C//DTD SVG 1.1//EN" "http://www.w3.org/Graphics/SVG/1.1/DTD/svg11.dtd">
<!-- Creator: CorelDRAW X7 -->
<svg xmlns="http://www.w3.org/2000/svg" xml:space="preserve" width="26mm" height="26mm" version="1.1" style="shape-rendering:geometricPrecision; text-rendering:geometricPrecision; image-rendering:optimizeQuality; fill-rule:evenodd; clip-rule:evenodd"
viewBox="0 0 2600 2600"
 xmlns:xlink="http://www.w3.org/1999/xlink">
 <defs>
  <style type="text/css">
   <![CDATA[
    .fil0 {fill:#003399}
    .fil1 {fill:#FF6600}
   ]]>
  </style>
 </defs>
 <g id="Слой_x0020_1">
  <metadata id="CorelCorpID_0Corel-Layer"/>
  <g id="_2132428003456">
   <g>
    <path class="fil0" d="M983 510c198,0 358,113 358,251 0,139 -160,252 -358,252 -198,0 -358,-113 -358,-252 0,-138 160,-251 358,-251zm849 1101c90,0 169,31 215,79 1,-2 1,-4 1,-7 0,-74 -97,-134 -216,-134 -118,0 -215,60 -215,134 0,3 0,5 1,7 46,-48 125,-79 214,-79zm222 278c-14,16 -33,31 -54,44 21,12 40,27 54,44l0 -88zm-109 69c-34,11 -72,18 -113,18 -40,0 -78,-7 -112,-18 -62,24 -103,66 -103,114 0,75 97,135 215,135 119,0 216,-60 216,-135 0,-48 -41,-90 -103,-114zm-280 -25c-21,-13 -40,-28 -54,-44l0 88c14,-17 33,-32 54,-44zm167 -274c88,0 163,33 197,79 -34,47 -109,79 -197,79 -87,0 -162,-32 -196,-79 34,-46 109,-79 196,-79zm215 127c1,2 1,5 1,7 0,49 -41,91 -103,115 -34,-12 -72,-18 -113,-18 -40,0 -78,6 -112,18 -62,-24 -103,-66 -103,-115 0,-2 0,-5 1,-7 46,48 125,80 214,80 90,0 169,-32 215,-80zm-1059 -175c89,0 168,31 215,79 0,-2 0,-4 0,-7 0,-74 -96,-134 -215,-134 -119,0 -215,60 -215,134 0,3 0,5 0,7 47,-48 126,-79 215,-79zm217 283c-14,15 -31,28 -49,39 18,11 35,24 49,39l0 -78zm-105 64c-34,11 -72,18 -112,18 -40,0 -78,-7 -112,-18 -62,24 -103,66 -103,114 0,75 96,135 215,135 119,0 215,-60 215,-135 0,-48 -41,-90 -103,-114zm-280 -25c-23,-14 -44,-31 -59,-50l0 100c15,-19 36,-36 59,-50zm168 -274c87,0 162,33 196,79 -34,47 -109,79 -196,79 -87,0 -163,-32 -196,-79 33,-46 109,-79 196,-79zm215 127c0,2 0,5 0,7 0,49 -41,91 -103,115 -34,-12 -72,-18 -112,-18 -40,0 -78,6 -112,18 -62,-24 -103,-66 -103,-115 0,-2 0,-5 0,-7 47,48 126,80 215,80 89,0 168,-32 215,-80zm850 384c-46,51 -128,85 -221,85 -92,0 -174,-34 -220,-85 14,154 107,275 220,275l0 0c113,0 207,-121 221,-275zm-221 -669c94,0 176,34 222,87l0 -196c-46,52 -128,87 -222,87 -93,0 -176,-35 -221,-87l0 196c45,-53 128,-87 221,-87zm222 -399l0 -84c27,-15 51,-41 71,-61l0 145 -71 0zm71 141l0 895c0,227 -132,412 -293,412l0 0c-160,0 -292,-185 -292,-412l0 -895 95 0c-11,17 -18,35 -18,54 0,74 97,134 215,134 119,0 216,-60 216,-134 0,-19 -7,-37 -18,-54l95 0zm-585 -141l0 -145c20,20 44,45 71,60l0 85 -71 0zm-337 1074c-47,48 -126,79 -215,79 -97,0 -181,-37 -226,-92 11,158 106,282 221,282l0 0c111,0 204,-118 220,-269zm-215 -675c90,0 170,32 217,81l0 -184c-47,49 -127,81 -217,81 -97,0 -182,-37 -227,-93l0 208c45,-56 130,-93 227,-93zm217 -399l0 -84c27,-15 51,-41 70,-61l0 145 -70 0zm70 141l0 895c0,227 -131,412 -292,412l0 0c-161,0 -292,-185 -292,-412l0 -895 99 0c-11,17 -17,35 -17,54 0,74 96,134 215,134 119,0 215,-60 215,-134 0,-19 -6,-37 -18,-54l90 0zm-584 -141l0 -145c19,20 43,45 70,60l0 85 -70 0zm1141 -592c198,0 359,113 359,251 0,139 -161,252 -359,252 -197,0 -358,-113 -358,-252 0,-138 161,-251 358,-251zm0 67c164,0 297,82 297,184 0,102 -133,185 -297,185 -163,0 -296,-83 -296,-185 0,-102 133,-184 296,-184zm-849 0c164,0 296,82 296,184 0,102 -132,185 -296,185 -164,0 -296,-83 -296,-185 0,-102 132,-184 296,-184z"/>
    <polygon class="fil0" points="539,824 613,1133 2212,1133 2374,457 2416,487 2242,1210 583,1210 490,824 "/>
   </g>
   <path class="fil1" d="M630 544l0 33c-15,1 -26,-2 -33,11 -4,7 -9,27 -12,37 -4,10 -13,26 -12,38 0,12 13,23 17,30l-20 25c-6,-5 -15,-20 -24,-21 -11,-2 -30,14 -47,21 -25,10 -24,12 -25,48 -6,1 -21,0 -27,0 -1,-48 -5,-37 -40,-55 -19,-10 -29,-23 -45,-6 -4,3 -9,10 -12,12 -3,-2 -17,-20 -19,-24 19,-32 24,-17 7,-65 -16,-45 -11,-51 -47,-51l0 -33c16,0 27,2 35,-18 2,-5 4,-11 6,-17 4,-16 18,-44 16,-52 -1,-9 -13,-22 -17,-29 1,-3 18,-23 20,-24 7,4 18,21 25,21 6,0 25,-12 30,-15 33,-17 40,-8 41,-54 5,-1 22,-2 27,0 0,47 9,37 43,56 6,3 23,14 29,13 8,-2 18,-17 24,-22 3,3 18,20 19,23 -1,4 -7,10 -9,14 -3,4 -7,10 -7,17 -1,12 8,29 11,39 13,37 6,48 46,48zm-223 -186c-2,4 -23,13 -27,14 -6,-1 -20,-33 -35,-24 -10,6 -51,55 -59,70 -9,20 16,36 18,44 0,5 -3,12 -4,17l-4 13c-2,5 0,2 -2,3 -7,0 -17,0 -24,1 -7,2 -11,7 -15,11 -5,4 -3,12 -3,25 0,10 0,20 0,30 0,13 -2,44 4,53 8,12 24,10 39,12 13,38 10,25 -7,52 -12,19 3,32 17,50 8,10 25,31 34,39 16,14 25,1 40,-19 2,0 27,11 28,14 0,9 -1,21 1,30 1,7 6,17 10,19 17,0 34,0 51,0 8,0 17,-1 25,-1 10,-1 13,-2 16,-12 3,-7 4,-16 4,-25 1,-16 4,-14 20,-23 10,-5 6,-3 15,7 3,3 5,5 7,8 15,16 22,7 33,-5 9,-10 18,-20 26,-31 5,-6 22,-24 22,-36 1,-12 -17,-28 -22,-36 1,-3 10,-29 11,-31 13,-2 33,0 38,-12 5,-11 4,-40 4,-54 0,-14 1,-44 -3,-55 -6,-14 -27,-8 -39,-12l-10 -32c5,-6 9,-11 14,-18 17,-21 -1,-36 -22,-62 -7,-9 -23,-28 -31,-33 -15,-10 -25,11 -37,22l-25 -11c-3,-54 -1,-52 -54,-53 -48,0 -55,-3 -54,51z"/>
   <path class="fil1" d="M192 129l-18 -20c-12,-13 -18,-20 -34,-2 -11,11 -55,61 -61,76 -5,13 3,23 8,29l18 23c-1,4 -9,27 -12,35 -2,5 -2,6 -7,8 -7,2 -17,2 -24,2 -10,1 -15,2 -19,10 -4,13 -4,107 -3,126 7,4 8,10 20,12 9,1 20,-1 29,0l16 47c-6,9 -24,28 -27,38 -2,13 15,33 23,42 9,11 35,44 45,52 20,16 35,-23 45,-27 4,-1 7,2 11,4 21,10 33,-17 25,-31 -4,-8 -24,-24 -36,-26 -16,-4 -27,21 -36,27 -5,-4 -23,-29 -31,-37 3,-8 20,-20 23,-34 3,-13 -9,-34 -12,-45 -14,-39 -9,-54 -31,-55 -9,-1 -18,0 -26,-1l0 -54c17,-1 33,3 42,-12 5,-9 8,-29 14,-45 4,-11 15,-32 13,-46 -2,-15 -19,-25 -23,-34l31 -38c7,4 17,25 29,28 13,3 34,-17 56,-25 31,-11 27,-18 28,-60l46 0c0,11 -1,21 0,31 1,29 13,22 45,38 26,14 33,26 52,3 4,-4 10,-13 14,-15 6,9 27,31 30,38 -4,8 -26,26 -23,42 4,15 15,38 22,44 11,8 35,-3 26,-30 -4,-10 -7,-10 3,-23 9,-11 26,-25 16,-45 -6,-11 -47,-60 -58,-71 -3,-4 -11,-13 -19,-11 -9,2 -24,26 -32,32l-39 -19c0,-11 1,-23 0,-35 -1,-15 -6,-15 -10,-24 -14,-1 -95,-2 -103,4 -12,8 -8,34 -11,52 -2,8 -5,8 -16,13 -4,2 -15,9 -19,9z"/>
   <path class="fil1" d="M452 505c15,-2 28,1 37,11 33,34 17,93 -20,100 -29,6 -50,-18 -54,-46 -6,-33 14,-62 37,-65zm-1 -48c-44,6 -81,54 -76,114 7,89 100,126 151,56 13,-17 21,-47 19,-79 -5,-53 -45,-97 -94,-91z"/>
   <path class="fil1" d="M2347 2183c19,-2 36,1 48,11 41,37 22,100 -26,107 -37,6 -64,-19 -69,-49 -7,-35 18,-66 47,-69zm-1 -51c-56,6 -103,57 -96,121 9,95 126,135 191,61 17,-20 27,-51 24,-86 -6,-56 -56,-102 -119,-96z"/>
   <path class="fil1" d="M2191 2229l0 28c15,0 25,-2 33,8 3,6 8,23 11,31 4,8 12,22 12,31 -1,11 -14,20 -17,26l20 20c5,-4 14,-16 23,-17 10,-2 29,12 46,17 24,8 24,10 24,40 6,1 21,0 27,0 1,-40 5,-31 38,-46 19,-8 29,-19 45,-5 3,3 9,8 12,10 3,-1 16,-16 18,-19 -18,-27 -23,-14 -7,-54 16,-38 11,-43 46,-42l0 -28c-15,0 -26,1 -34,-15 -2,-4 -4,-10 -6,-15 -4,-12 -17,-36 -16,-42 2,-8 14,-19 17,-24 -1,-3 -17,-19 -20,-21 -6,4 -17,18 -24,18 -5,0 -24,-10 -29,-12 -32,-15 -40,-7 -40,-45 -5,-1 -22,-2 -27,0 0,39 -8,31 -41,46 -6,3 -23,12 -29,11 -7,-2 -18,-14 -23,-18 -3,2 -18,17 -19,19 1,3 7,8 9,12 3,3 6,8 7,14 1,10 -8,24 -11,32 -13,30 -6,40 -45,40zm218 -154c2,3 22,10 27,11 5,-1 19,-27 34,-19 9,5 50,45 57,58 9,16 -15,29 -17,35 0,5 3,11 4,15l3 10c2,5 0,2 3,3 6,0 16,0 22,1 8,1 11,5 15,9 5,3 3,10 3,21 0,8 0,16 0,25 0,10 2,37 -4,44 -7,10 -23,8 -38,9 -12,32 -10,21 7,43 12,16 -3,27 -16,42 -8,8 -25,26 -33,33 -16,12 -25,0 -40,-16 -2,0 -26,9 -27,11 0,8 1,18 -1,25 -1,6 -6,14 -10,16 -16,0 -33,0 -50,0 -8,0 -16,0 -24,-1 -10,-1 -13,-1 -16,-9 -3,-7 -4,-14 -4,-21 0,-14 -4,-12 -19,-19 -10,-5 -6,-3 -15,5 -2,3 -4,4 -7,7 -14,13 -21,6 -32,-4 -9,-9 -18,-17 -26,-26 -5,-5 -21,-20 -21,-30 -1,-10 17,-23 21,-30 0,-2 -9,-23 -10,-25 -13,-2 -33,0 -37,-10 -5,-9 -4,-33 -4,-45 0,-11 -1,-36 3,-45 5,-13 26,-7 37,-10l11 -27c-5,-5 -9,-10 -14,-15 -17,-18 1,-30 21,-51 7,-8 23,-24 31,-28 14,-8 24,9 36,18l24 -9c4,-44 1,-43 53,-43 47,-1 53,-3 53,42z"/>
  </g>
 </g>
</svg>
