<?xml version="1.0" encoding="UTF-8"?>
<!DOCTYPE svg PUBLIC "-//W3C//DTD SVG 1.1//EN" "http://www.w3.org/Graphics/SVG/1.1/DTD/svg11.dtd">
<!-- Creator: CorelDRAW X7 -->
<svg xmlns="http://www.w3.org/2000/svg" xml:space="preserve" width="26mm" height="26mm" version="1.1" style="shape-rendering:geometricPrecision; text-rendering:geometricPrecision; image-rendering:optimizeQuality; fill-rule:evenodd; clip-rule:evenodd"
viewBox="0 0 2600 2600"
 xmlns:xlink="http://www.w3.org/1999/xlink">
 <defs>
  <style type="text/css">
   <![CDATA[
    .fil0 {fill:#003399}
    .fil1 {fill:#FF6600}
   ]]>
  </style>
 </defs>
 <g id="Слой_x0020_1">
  <metadata id="CorelCorpID_0Corel-Layer"/>
  <g id="_2132425220768">
   <path class="fil0" d="M1881 1297c-32,0 -57,-2 -63,31 -3,22 0,77 -1,102 0,42 -19,134 -28,177l-170 1c-12,-61 -18,-133 -27,-192l-81 -572c-8,-61 -15,-129 -27,-189 -7,-40 -31,-36 -69,-35l-507 0c-125,0 -127,-15 -139,67 -8,63 -18,128 -27,192l-108 765c-14,99 -38,298 -54,384 -32,4 -71,-8 -85,18 -21,40 12,57 52,57l1959 0c31,0 54,-21 40,-55 -12,-27 -51,-18 -83,-20 -4,-42 -1,-254 -1,-313 0,-115 27,-112 -194,-107 -7,-27 -28,-143 -28,-174 -2,-122 15,-133 -65,-138 -12,-124 -17,-656 -25,-796 -6,-83 -8,-164 -13,-246 -3,-41 -4,-82 -6,-122 -5,-95 -1,-81 -159,-81 -47,0 -44,29 -46,77 -4,119 -15,245 -19,366 -6,163 -13,643 -26,803zm111 -1136l72 0 -2 -35 -68 -1 -2 36zm-1161 577l595 1 -4 -45 -585 -1 -6 45zm-81 571l757 0 -5 -47 -745 -1 -7 48zm-100 720l116 0c4,-43 1,-257 1,-318 0,-120 -21,-103 199,-103 96,0 193,0 290,0 94,0 202,5 294,-1l-31 -224 -779 0c-11,52 -91,622 -90,646zm117 -842l724 0 -53 -374 -618 0 -53 374zm1118 227l286 0 1 -43 -287 0 0 43zm-26 192l338 1 -19 -117 -294 -1c-9,5 -2,-4 -7,11l-8 45c-3,18 -10,45 -10,61zm90 -310l158 1 -39 -1059 -80 -2 -39 1060zm-1111 730l1554 -1 -1 -340 -1553 0 0 341z"/>
   <path class="fil0" d="M1941 1750c-41,9 -39,69 8,72 50,3 362,2 376,-2 34,-8 37,-67 -9,-72l-375 2z"/>
   <path class="fil0" d="M1941 1890c-42,10 -38,69 7,72 51,3 363,2 377,-1 34,-9 36,-67 -8,-72l-376 1z"/>
   <path class="fil0" d="M907 1890c-41,10 -38,69 8,72 50,3 363,2 377,-1 35,-10 33,-68 -9,-72l-376 1z"/>
   <path class="fil0" d="M907 1750c-41,9 -39,68 8,72l377 -2c33,-9 35,-67 -9,-72l-376 2z"/>
   <path class="fil0" d="M1424 1750c-41,9 -36,65 1,71l381 0c35,-7 39,-66 -4,-72l-378 1z"/>
   <path class="fil0" d="M1424 1890c-42,10 -36,66 1,72l381 -1c36,-7 39,-65 -4,-72l-378 1z"/>
   <g>
    <path class="fil1" d="M50 469l0 106 0 107 0 106 0 86c326,1 79,0 479,0 38,0 44,14 68,34l170 135 1 -57c0,-329 0,-312 -1,-624l-717 0 0 107zm80 320l414 0c52,0 45,6 79,33 23,18 44,34 63,50 6,-131 2,-291 2,-425l-558 0 0 342z"/>
    <polygon class="fil1" points="529,660 608,660 608,575 529,575 "/>
    <polygon class="fil1" points="369,660 449,660 449,575 369,575 "/>
    <polygon class="fil1" points="210,660 289,660 289,575 210,575 "/>
   </g>
   <rect class="fil0" x="475" y="2163" width="2066.77" height="70.2106" rx="33" ry="35"/>
   <path class="fil1" d="M2061 2513l0 -180c0,-21 16,-37 34,-37l414 0c18,0 34,16 34,37l0 180c0,20 -16,37 -34,37l-414 0c-18,0 -34,-17 -34,-37zm414 -43l0 -95 -42 0 0 95 42 0zm-373 11l0 -117c0,-13 10,-24 22,-24l356 0c12,0 22,11 22,24l0 117c0,13 -10,24 -22,24l-356 0c-12,0 -22,-11 -22,-24z"/>
  </g>
 </g>
</svg>
