<?xml version="1.0" encoding="UTF-8"?>
<!DOCTYPE svg PUBLIC "-//W3C//DTD SVG 1.1//EN" "http://www.w3.org/Graphics/SVG/1.1/DTD/svg11.dtd">
<!-- Creator: CorelDRAW X7 -->
<svg xmlns="http://www.w3.org/2000/svg" xml:space="preserve" width="26mm" height="26mm" version="1.1" style="shape-rendering:geometricPrecision; text-rendering:geometricPrecision; image-rendering:optimizeQuality; fill-rule:evenodd; clip-rule:evenodd"
viewBox="0 0 2600 2600"
 xmlns:xlink="http://www.w3.org/1999/xlink">
 <defs>
  <style type="text/css">
   <![CDATA[
    .fil0 {fill:#003399}
    .fil1 {fill:#FF6600}
   ]]>
  </style>
 </defs>
 <g id="Слой_x0020_1">
  <metadata id="CorelCorpID_0Corel-Layer"/>
  <g id="_2131788522864">
   <path class="fil0" d="M50 148l0 97 0 98 0 97 0 78 157 0 -1 1191 0 58 167 0 97 0 98 0 97 0 98 0 97 0 88 1 0 136 0 20 10 0 185 0c0,136 19,79 -85,187 -46,47 -90,90 -137,137l-205 205c-26,27 -48,17 -120,17l1 78c205,0 106,0 168,-29 4,-17 362,-371 378,-381l1 156 0 98 0 97 0 15 0 44 9 0 69 0 0 -411c50,31 388,406 425,411 27,4 90,0 122,0l0 -78c-142,-1 -79,19 -261,-159 -70,-69 -142,-138 -209,-209 -11,-10 -16,-15 -26,-25 -4,-5 -8,-7 -12,-12 -8,-10 -5,-3 -8,-14 -21,-10 -31,-17 -32,-49 0,-26 0,-53 0,-79l128 1 68 0 0 -157 352 1 -1 156 -234 0c0,156 -12,273 206,273l97 0 98 0 97 0 98 0 97 0 99 0 97 -3c69,-17 84,-41 116,-94 8,-42 11,-52 11,-98l0 -98 0 -97 0 -98 0 -97 0 -98 0 -98 0 -97 0 -98 0 -97 0 -59 -127 0 -98 0 -97 0 -68 0 -1 -136 0 -98 0 -98 0 -97 0 -98 0 -98 68 0 50 0 0 -98 0 -97 0 -39 -49 0 -98 0 -97 0 -99 0 -97 0 -98 0 -97 0 -98 0 -97 0 -98 0 -10 0 0 -156 -312 0 0 98 0 58 -69 0 -97 0 -98 0 -10 0 0 -156 -703 0 0 98zm1797 1776l469 0 0 102c0,127 156,119 156,5l0 -888 -625 0 0 781zm-664 -1562l1016 0 0 -78 -1016 0 -430 0 0 78 430 0zm429 1664c0,61 29,92 88,93l557 -1c-21,-50 -19,-61 -19,-116l-626 0 0 24zm117 -727l35 0 5 0 0 -93 -38 -19 -2 112zm39 171l1 -93 -117 0 -1 -188c-82,22 -145,109 -104,210 15,36 48,69 87,84 45,17 102,14 134,-13zm-1640 -1030l405 0c52,0 45,6 78,30 22,17 43,32 62,47 5,-121 2,-266 2,-389l-547 0 0 312zm1055 -312l-78 0 0 78 78 0 78 0 0 -78 -78 0zm-430 493l-1 52 -166 -124c-24,-18 -29,-31 -67,-31l-235 0 0 1171 1485 0 -1 -130c-267,76 -420,-246 -219,-406 58,-46 133,-60 219,-36l1 -52 312 0 0 -625 -1328 0 0 181zm430 1146l-156 0 0 79 156 0 156 0 0 -79 -156 0z"/>
   <path class="fil1" d="M1768 1924l-234 0c0,156 -12,273 206,273l97 0 98 0 97 0 98 0 97 0 99 0 97 -3c69,-17 84,-41 116,-94 8,-42 11,-52 11,-98l0 -98 0 -97 0 -98 0 -97 0 -98 0 -98 0 -97 0 -98 0 -97 0 -59 -127 0 -98 0 -97 0c-162,-1 -113,0 -459,0l-1 52 0 89 1 0 0 93 -1 0 0 78 1 0 -1 93 0 0 0 89 0 0c1,121 1,243 0,365zm79 0l469 0 0 102c0,127 156,119 156,5l0 -888 -625 0 0 781zm-235 102c0,61 29,92 88,93l557 -1c-21,-50 -19,-61 -19,-116l-626 0 0 24z"/>
   <path class="fil0" d="M1300 1026l-763 0c11,-18 28,-31 43,-46 19,-19 21,-32 56,-33 58,-1 119,0 178,1 13,-24 39,-55 56,-78 17,-23 45,-56 57,-79 43,1 86,1 129,1 70,0 54,5 99,-28 50,-38 96,-74 146,-109 11,-11 5,-2 14,-16 -10,-8 -39,-46 -44,-57 -19,8 -122,88 -147,107 -43,33 -34,25 -102,25 -45,0 -89,0 -134,0 -28,50 -85,105 -113,156 -33,0 -176,-6 -195,3 -17,8 -74,79 -100,95l0 -411 -78 0 0 547 937 0 0 -78 -39 0z"/>
   <polygon class="fil0" points="402,1416 1261,1416 1261,1338 402,1338 "/>
   <polygon class="fil0" points="402,1572 1027,1572 1027,1494 402,1494 "/>
   <polygon class="fil1" points="1925,1650 2394,1650 2394,1572 1925,1572 "/>
   <polygon class="fil1" points="1925,1494 2394,1494 2394,1416 1925,1416 "/>
   <polygon class="fil1" points="1925,1806 2394,1806 2394,1728 1925,1728 "/>
   <polygon class="fil0" points="1652,831 1964,831 1964,753 1652,753 "/>
   <polygon class="fil0" points="1652,675 1964,674 1964,597 1652,597 "/>
   <polygon class="fil1" points="2277,1338 2355,1338 2355,1260 2277,1260 "/>
   <polygon class="fil0" points="1495,831 1573,831 1573,753 1495,753 "/>
   <polygon class="fil0" points="558,1260 636,1260 636,1182 558,1182 "/>
   <polygon class="fil1" points="2120,1338 2198,1338 2198,1260 2120,1260 "/>
   <polygon class="fil0" points="1495,675 1573,674 1573,597 1495,597 "/>
   <polygon class="fil1" points="1964,1338 2042,1338 2042,1260 1964,1260 "/>
   <polygon class="fil0" points="714,1260 792,1260 792,1182 714,1182 "/>
   <polygon class="fil0" points="402,1260 480,1260 480,1182 402,1182 "/>
   <path class="fil1" d="M50 148l0 97 0 98 0 97 0 78c319,1 78,0 469,0 38,0 43,13 67,31l166 124 1 -52c0,-301 1,-285 0,-571l-703 0 0 98zm78 292l405 0c52,0 45,6 78,30 22,17 43,32 62,47 5,-121 2,-266 2,-389l-547 0 0 312z"/>
   <polygon class="fil1" points="519,323 597,323 597,245 519,245 "/>
   <polygon class="fil1" points="363,323 441,323 441,245 363,245 "/>
   <polygon class="fil1" points="206,323 284,323 284,245 206,245 "/>
  </g>
 </g>
</svg>
