<?xml version="1.0" encoding="UTF-8"?>
<!DOCTYPE svg PUBLIC "-//W3C//DTD SVG 1.1//EN" "http://www.w3.org/Graphics/SVG/1.1/DTD/svg11.dtd">
<!-- Creator: CorelDRAW X7 -->
<svg xmlns="http://www.w3.org/2000/svg" xml:space="preserve" width="26mm" height="26mm" version="1.1" style="shape-rendering:geometricPrecision; text-rendering:geometricPrecision; image-rendering:optimizeQuality; fill-rule:evenodd; clip-rule:evenodd"
viewBox="0 0 2600 2600"
 xmlns:xlink="http://www.w3.org/1999/xlink">
 <defs>
  <style type="text/css">
   <![CDATA[
    .fil0 {fill:#003399}
    .fil1 {fill:#FF6600}
   ]]>
  </style>
 </defs>
 <g id="Слой_x0020_1">
  <metadata id="CorelCorpID_0Corel-Layer"/>
  <g id="_2132424276992">
   <path class="fil0" d="M644 2362c-1,46 52,87 102,89l269 0c86,0 173,-1 259,0l113 0c46,-2 139,-1 232,0l182 0 0 -76 -1026 0c-37,0 -61,-3 -63,-41 -4,-68 -1,-149 -1,-219 0,-69 -2,-334 1,-403l0 -284c-25,-3 -49,-7 -72,-13l0 910c1,22 2,35 4,37zm1317 -504l0 -325c0,-58 -1,-105 -1,-127 0,-55 -6,-199 1,-249l0 -84 -1 0 0 -379 1 0 0 -79 0 0c-2,-36 4,-144 -3,-169 -4,-50 -48,-91 -96,-97 -33,-4 -499,-2 -771,-1l-76 0c37,21 72,47 104,77l704 0c33,-3 57,2 63,34l1 455 0 944 74 0z"/>
   <path class="fil0" d="M767 339c266,0 481,232 481,518 0,286 -215,518 -481,518 -103,0 -198,-35 -276,-94l-389 470 -52 -50 387 -468c-93,-94 -151,-228 -151,-376 0,-286 215,-518 481,-518zm0 79c225,0 408,197 408,439 0,242 -183,439 -408,439 -225,0 -408,-197 -408,-439 0,-242 183,-439 408,-439z"/>
   <polygon class="fil0" points="798,2032 1804,2032 1804,1956 798,1956 "/>
   <polygon class="fil0" points="798,1888 1804,1888 1804,1811 798,1811 "/>
   <path class="fil1" d="M867 850c47,52 78,138 78,236 0,26 -3,51 -7,76 -46,32 -102,52 -164,52 -69,0 -133,-25 -181,-66 -3,-20 -5,-41 -5,-62 0,-98 31,-184 78,-236 28,21 63,34 100,34 38,0 73,-13 101,-34z"/>
   <ellipse class="fil1" cx="766" cy="693" rx="141" ry="151"/>
   <g>
    <polygon class="fil0" points="1696,1751 1767,1751 1767,1675 1696,1675 "/>
    <polygon class="fil0" points="1590,1751 1661,1751 1661,1675 1590,1675 "/>
    <polygon class="fil0" points="1482,1751 1553,1751 1553,1675 1482,1675 "/>
    <polygon class="fil0" points="1372,1751 1443,1751 1443,1675 1372,1675 "/>
    <polygon class="fil0" points="1265,1751 1336,1751 1336,1675 1265,1675 "/>
    <polygon class="fil0" points="1158,1751 1229,1751 1229,1675 1158,1675 "/>
    <polygon class="fil0" points="1052,1751 1123,1751 1123,1675 1052,1675 "/>
    <polygon class="fil0" points="944,1751 1015,1751 1015,1675 944,1675 "/>
    <polygon class="fil0" points="834,1751 905,1751 905,1675 834,1675 "/>
   </g>
   <path class="fil0" d="M909 1457l695 0c-10,-18 -25,-30 -39,-45 -17,-19 -19,-32 -51,-32 -53,-1 -108,0 -162,0 -12,-23 -35,-53 -51,-76 -16,-22 -41,-55 -52,-77 -24,0 -48,0 -72,0 18,-24 35,-49 50,-76l58 0c25,50 77,103 103,153 29,0 159,-6 177,3 16,8 67,77 91,93l0 -402 72 0 0 535 -854 0 0 -76 35 0z"/>
   <path class="fil0" d="M1691 541c97,75 120,220 51,325 -69,105 -205,130 -302,56 -98,-75 -121,-221 -51,-326 69,-105 204,-129 302,-55zm-17 91l-80 122 -58 -45 81 -121c-60,-25 -130,-4 -168,54 -46,70 -31,166 33,215 65,49 154,33 200,-36 39,-59 34,-137 -8,-189z"/>
   <polygon class="fil0" points="798,2272 1804,2272 1804,2195 798,2195 "/>
   <path class="fil0" d="M677 2278l-171 0c-57,0 -103,-48 -103,-107l0 -895 71 0c0,4 0,8 0,12l0 816c0,47 37,86 84,86l119 0 0 88z"/>
   <path class="fil0" d="M1940 1633l171 0c56,0 103,-48 103,-107l0 -894 -72 0c1,3 1,7 1,11l0 816c0,48 -38,87 -84,87l-119 0 0 87z"/>
   <path class="fil0" d="M1940 50l137 0 34 0c56,0 103,48 103,107l0 894 -72 0c1,-4 1,-8 1,-12l0 -815c0,-48 -38,-87 -84,-87l-119 0 0 0 -630 0c-44,0 -80,47 -80,104l0 146 -81 0 0 -210c0,-70 44,-127 99,-127l692 0z"/>
   <path class="fil1" d="M1837 1811l555 0c47,0 85,38 85,86l0 95c18,-11 42,-8 58,7l0 0c19,20 20,52 2,72l-60 64 0 329c0,47 -38,86 -85,86l-555 0c-46,0 -85,-39 -85,-86l0 -567c0,-48 39,-86 85,-86zm51 275l0 0c18,-20 49,-21 68,-2l230 219 208 -224 0 -130c0,-30 -24,-54 -53,-54l-453 0c-29,0 -52,24 -52,54l0 463c0,29 23,53 52,53l453 0c29,0 53,-24 53,-53l0 -187 -171 184c-18,20 -49,20 -68,1l0 0 -265 -253c-20,-18 -21,-50 -2,-71z"/>
  </g>
 </g>
</svg>
